<?xml version="1.0" encoding="UTF-8" standalone="no"?>
<!-- Created with Inkscape (http://www.inkscape.org/) -->

<svg
   width="250.38225mm"
   height="73.042633mm"
   viewBox="0 0 250.38225 73.042633"
   version="1.1"
   id="svg351003"
   inkscape:version="1.1 (c68e22c387, 2021-05-23)"
   sodipodi:docname="MoveButtons.svg"
   xmlns:inkscape="http://www.inkscape.org/namespaces/inkscape"
   xmlns:sodipodi="http://sodipodi.sourceforge.net/DTD/sodipodi-0.dtd"
   xmlns="http://www.w3.org/2000/svg"
   xmlns:svg="http://www.w3.org/2000/svg">
  <sodipodi:namedview
     id="namedview351005"
     pagecolor="#ffffff"
     bordercolor="#666666"
     borderopacity="1.0"
     inkscape:pageshadow="2"
     inkscape:pageopacity="0.0"
     inkscape:pagecheckerboard="0"
     inkscape:document-units="mm"
     showgrid="false"
     inkscape:zoom="1.0985947"
     inkscape:cx="279.90303"
     inkscape:cy="481.06911"
     inkscape:window-width="1920"
     inkscape:window-height="1017"
     inkscape:window-x="1912"
     inkscape:window-y="-8"
     inkscape:window-maximized="1"
     inkscape:current-layer="layer1" />
  <defs
     id="defs351000" />
  <g
     inkscape:label="Layer 1"
     inkscape:groupmode="layer"
     id="layer1"
     transform="translate(29.733205,-41.223222)">
    <rect
       style="fill:#a1a1a1;fill-opacity:1;stroke:none;stroke-width:1.28089;stroke-linecap:square;stroke-linejoin:round;stroke-miterlimit:4;stroke-dasharray:none;stroke-opacity:0.451681;paint-order:normal"
       id="rect293294"
       width="83.460754"
       height="12.173727"
       x="-29.733206"
       y="41.223476"
       ry="6.0868635"
       inkscape:export-filename="C:\Users\aniki\dev\PocketWarriorMonsters\Assets\Resources\Sprites\Battle\UI\MoveButtons.png"
       inkscape:export-xdpi="96"
       inkscape:export-ydpi="96" />
    <path
       id="rect298524"
       style="fill:#000000;fill-opacity:1;stroke:none;stroke-width:0.390766;stroke-linecap:square;stroke-linejoin:round;stroke-miterlimit:4;stroke-dasharray:none;stroke-opacity:1;paint-order:normal"
       d="m 30.896062,41.223452 -5.063957,12.173761 h 21.808553 c 3.372119,0 6.086878,-2.71475 6.086878,-6.086868 0,-3.372118 -2.714759,-6.086893 -6.086878,-6.086893 z"
       inkscape:export-filename="C:\Users\aniki\dev\PocketWarriorMonsters\Assets\Resources\Sprites\Battle\UI\MoveButtons.png"
       inkscape:export-xdpi="96"
       inkscape:export-ydpi="96" />
    <circle
       style="fill:none;stroke:#ffffff;stroke-width:1.13784;stroke-linecap:round;stroke-linejoin:round;stroke-miterlimit:4;stroke-dasharray:none;stroke-opacity:1"
       id="circle293298"
       cx="-23.152983"
       cy="47.310341"
       r="3.080004"
       inkscape:export-filename="C:\Users\aniki\dev\PocketWarriorMonsters\Assets\Resources\Sprites\Battle\UI\MoveButtons.png"
       inkscape:export-xdpi="96"
       inkscape:export-ydpi="96" />
    <rect
       style="fill:#91c12f;fill-opacity:1;stroke:none;stroke-width:1.28089;stroke-linecap:square;stroke-linejoin:round;stroke-miterlimit:4;stroke-dasharray:none;stroke-opacity:0.451681;paint-order:normal"
       id="rect312882"
       width="83.460754"
       height="12.173727"
       x="-29.733206"
       y="53.397194"
       ry="6.0868635"
       inkscape:export-filename="C:\Users\aniki\dev\PocketWarriorMonsters\Assets\Resources\Sprites\Battle\UI\MoveButtons.png"
       inkscape:export-xdpi="96"
       inkscape:export-ydpi="96" />
    <path
       id="path312884"
       style="fill:#000000;fill-opacity:1;stroke:none;stroke-width:0.390766;stroke-linecap:square;stroke-linejoin:round;stroke-miterlimit:4;stroke-dasharray:none;stroke-opacity:1;paint-order:normal"
       d="m 30.896062,53.397175 -5.063957,12.173773 h 21.808553 c 3.372119,0 6.086878,-2.714762 6.086878,-6.086893 0,-3.372092 -2.714759,-6.08688 -6.086878,-6.08688 z"
       inkscape:export-filename="C:\Users\aniki\dev\PocketWarriorMonsters\Assets\Resources\Sprites\Battle\UI\MoveButtons.png"
       inkscape:export-xdpi="96"
       inkscape:export-ydpi="96" />
    <rect
       style="fill:#f4d23c;fill-opacity:1;stroke:none;stroke-width:1.28089;stroke-linecap:square;stroke-linejoin:round;stroke-miterlimit:4;stroke-dasharray:none;stroke-opacity:0.451681;paint-order:normal"
       id="rect312890"
       width="83.460754"
       height="12.173727"
       x="-29.733206"
       y="65.570915"
       ry="6.0868635"
       inkscape:export-filename="C:\Users\aniki\dev\PocketWarriorMonsters\Assets\Resources\Sprites\Battle\UI\MoveButtons.png"
       inkscape:export-xdpi="96"
       inkscape:export-ydpi="96" />
    <path
       id="path312892"
       style="fill:#000000;fill-opacity:1;stroke:none;stroke-width:0.390766;stroke-linecap:square;stroke-linejoin:round;stroke-miterlimit:4;stroke-dasharray:none;stroke-opacity:1;paint-order:normal"
       d="m 30.896062,65.570693 -5.063957,12.173761 h 21.808553 c 3.372119,0 6.086878,-2.714763 6.086878,-6.086893 0,-3.372118 -2.714759,-6.086868 -6.086878,-6.086868 z"
       inkscape:export-filename="C:\Users\aniki\dev\PocketWarriorMonsters\Assets\Resources\Sprites\Battle\UI\MoveButtons.png"
       inkscape:export-xdpi="96"
       inkscape:export-ydpi="96" />
    <rect
       style="fill:#aa6bc8;fill-opacity:1;stroke:none;stroke-width:1.28089;stroke-linecap:square;stroke-linejoin:round;stroke-miterlimit:4;stroke-dasharray:none;stroke-opacity:0.451681;paint-order:normal"
       id="rect312898"
       width="83.460754"
       height="12.173727"
       x="-29.733206"
       y="77.744629"
       ry="6.0868635"
       inkscape:export-filename="C:\Users\aniki\dev\PocketWarriorMonsters\Assets\Resources\Sprites\Battle\UI\MoveButtons.png"
       inkscape:export-xdpi="96"
       inkscape:export-ydpi="96" />
    <path
       id="path312900"
       style="fill:#000000;fill-opacity:1;stroke:none;stroke-width:0.390766;stroke-linecap:square;stroke-linejoin:round;stroke-miterlimit:4;stroke-dasharray:none;stroke-opacity:1;paint-order:normal"
       d="m 30.896062,77.744416 -5.063957,12.173761 h 21.808553 c 3.372119,0 6.086878,-2.714763 6.086878,-6.086881 0,-3.372117 -2.714759,-6.08688 -6.086878,-6.08688 z"
       inkscape:export-filename="C:\Users\aniki\dev\PocketWarriorMonsters\Assets\Resources\Sprites\Battle\UI\MoveButtons.png"
       inkscape:export-xdpi="96"
       inkscape:export-ydpi="96" />
    <rect
       style="fill:#ff9d55;fill-opacity:1;stroke:none;stroke-width:1.28089;stroke-linecap:square;stroke-linejoin:round;stroke-miterlimit:4;stroke-dasharray:none;stroke-opacity:0.451681;paint-order:normal"
       id="rect312906"
       width="83.460754"
       height="12.173727"
       x="-29.733206"
       y="89.918381"
       ry="6.0868635"
       inkscape:export-filename="C:\Users\aniki\dev\PocketWarriorMonsters\Assets\Resources\Sprites\Battle\UI\MoveButtons.png"
       inkscape:export-xdpi="96"
       inkscape:export-ydpi="96" />
    <path
       id="path312908"
       style="fill:#000000;fill-opacity:1;stroke:none;stroke-width:0.390766;stroke-linecap:square;stroke-linejoin:round;stroke-miterlimit:4;stroke-dasharray:none;stroke-opacity:1;paint-order:normal"
       d="m 30.896062,89.918356 -5.063957,12.173774 h 21.808553 c 3.372119,0 6.086878,-2.714763 6.086878,-6.086881 0,-3.372105 -2.714759,-6.086893 -6.086878,-6.086893 z"
       inkscape:export-filename="C:\Users\aniki\dev\PocketWarriorMonsters\Assets\Resources\Sprites\Battle\UI\MoveButtons.png"
       inkscape:export-xdpi="96"
       inkscape:export-ydpi="96" />
    <rect
       style="fill:#0b6dc3;fill-opacity:1;stroke:none;stroke-width:1.28089;stroke-linecap:square;stroke-linejoin:round;stroke-miterlimit:4;stroke-dasharray:none;stroke-opacity:0.451681;paint-order:normal"
       id="rect312914"
       width="83.460754"
       height="12.173727"
       x="-29.733206"
       y="102.09209"
       ry="6.0868635"
       inkscape:export-filename="C:\Users\aniki\dev\PocketWarriorMonsters\Assets\Resources\Sprites\Battle\UI\MoveButtons.png"
       inkscape:export-xdpi="96"
       inkscape:export-ydpi="96" />
    <path
       id="path312916"
       style="fill:#000000;fill-opacity:1;stroke:none;stroke-width:0.390766;stroke-linecap:square;stroke-linejoin:round;stroke-miterlimit:4;stroke-dasharray:none;stroke-opacity:1;paint-order:normal"
       d="m 30.896062,102.09209 -5.063957,12.17376 h 21.808553 c 3.372119,0 6.086878,-2.71475 6.086878,-6.08689 0,-3.37211 -2.714759,-6.08687 -6.086878,-6.08687 z"
       inkscape:export-filename="C:\Users\aniki\dev\PocketWarriorMonsters\Assets\Resources\Sprites\Battle\UI\MoveButtons.png"
       inkscape:export-xdpi="96"
       inkscape:export-ydpi="96" />
    <rect
       style="fill:#ce416b;fill-opacity:1;stroke:none;stroke-width:1.28089;stroke-linecap:square;stroke-linejoin:round;stroke-miterlimit:4;stroke-dasharray:none;stroke-opacity:0.451681;paint-order:normal"
       id="rect313010"
       width="83.460754"
       height="12.173727"
       x="-29.733208"
       y="114.26582"
       ry="6.0868635"
       inkscape:export-filename="C:\Users\aniki\dev\PocketWarriorMonsters\Assets\Resources\Sprites\Battle\UI\MoveButtons.png"
       inkscape:export-xdpi="96"
       inkscape:export-ydpi="96" />
    <path
       id="path313012"
       style="fill:#000000;fill-opacity:1;stroke:none;stroke-width:0.390766;stroke-linecap:square;stroke-linejoin:round;stroke-miterlimit:4;stroke-dasharray:none;stroke-opacity:1;paint-order:normal"
       d="m 30.896048,114.26579 -5.06395,12.17376 h 21.80854 c 3.37212,0 6.08687,-2.71475 6.08687,-6.08687 0,-3.37211 -2.71475,-6.08689 -6.08687,-6.08689 z"
       inkscape:export-filename="C:\Users\aniki\dev\PocketWarriorMonsters\Assets\Resources\Sprites\Battle\UI\MoveButtons.png"
       inkscape:export-xdpi="96"
       inkscape:export-ydpi="96" />
    <rect
       style="fill:#5269ad;fill-opacity:1;stroke:none;stroke-width:1.28089;stroke-linecap:square;stroke-linejoin:round;stroke-miterlimit:4;stroke-dasharray:none;stroke-opacity:0.451681;paint-order:normal"
       id="rect313018"
       width="83.460754"
       height="12.173727"
       x="-29.733208"
       y="126.43953"
       ry="6.0868635"
       inkscape:export-filename="C:\Users\aniki\dev\PocketWarriorMonsters\Assets\Resources\Sprites\Battle\UI\MoveButtons.png"
       inkscape:export-xdpi="96"
       inkscape:export-ydpi="96" />
    <path
       id="path313020"
       style="fill:#000000;fill-opacity:1;stroke:none;stroke-width:0.390766;stroke-linecap:square;stroke-linejoin:round;stroke-miterlimit:4;stroke-dasharray:none;stroke-opacity:1;paint-order:normal"
       d="m 30.896048,126.43951 -5.06395,12.17378 h 21.80854 c 3.37212,0 6.08687,-2.71476 6.08687,-6.0869 0,-3.37209 -2.71475,-6.08688 -6.08687,-6.08688 z"
       inkscape:export-filename="C:\Users\aniki\dev\PocketWarriorMonsters\Assets\Resources\Sprites\Battle\UI\MoveButtons.png"
       inkscape:export-xdpi="96"
       inkscape:export-ydpi="96" />
    <rect
       style="fill:#fa7179;fill-opacity:1;stroke:none;stroke-width:1.28089;stroke-linecap:square;stroke-linejoin:round;stroke-miterlimit:4;stroke-dasharray:none;stroke-opacity:0.451681;paint-order:normal"
       id="rect313026"
       width="83.460754"
       height="12.173727"
       x="-29.733208"
       y="138.61325"
       ry="6.0868635"
       inkscape:export-filename="C:\Users\aniki\dev\PocketWarriorMonsters\Assets\Resources\Sprites\Battle\UI\MoveButtons.png"
       inkscape:export-xdpi="96"
       inkscape:export-ydpi="96" />
    <path
       id="path313028"
       style="fill:#000000;fill-opacity:1;stroke:none;stroke-width:0.390766;stroke-linecap:square;stroke-linejoin:round;stroke-miterlimit:4;stroke-dasharray:none;stroke-opacity:1;paint-order:normal"
       d="m 30.896048,138.61303 -5.06395,12.17376 h 21.80854 c 3.37212,0 6.08687,-2.71476 6.08687,-6.08689 0,-3.37212 -2.71475,-6.08687 -6.08687,-6.08687 z"
       inkscape:export-filename="C:\Users\aniki\dev\PocketWarriorMonsters\Assets\Resources\Sprites\Battle\UI\MoveButtons.png"
       inkscape:export-xdpi="96"
       inkscape:export-ydpi="96" />
    <rect
       style="fill:#d97845;fill-opacity:1;stroke:none;stroke-width:1.28089;stroke-linecap:square;stroke-linejoin:round;stroke-miterlimit:4;stroke-dasharray:none;stroke-opacity:0.451681;paint-order:normal"
       id="rect313034"
       width="83.460754"
       height="12.173727"
       x="-29.733208"
       y="150.78697"
       ry="6.0868635"
       inkscape:export-filename="C:\Users\aniki\dev\PocketWarriorMonsters\Assets\Resources\Sprites\Battle\UI\MoveButtons.png"
       inkscape:export-xdpi="96"
       inkscape:export-ydpi="96" />
    <path
       id="path313036"
       style="fill:#000000;fill-opacity:1;stroke:none;stroke-width:0.390766;stroke-linecap:square;stroke-linejoin:round;stroke-miterlimit:4;stroke-dasharray:none;stroke-opacity:1;paint-order:normal"
       d="m 30.896048,150.78676 -5.06395,12.17376 h 21.80854 c 3.37212,0 6.08687,-2.71477 6.08687,-6.08688 0,-3.37212 -2.71475,-6.08688 -6.08687,-6.08688 z"
       inkscape:export-filename="C:\Users\aniki\dev\PocketWarriorMonsters\Assets\Resources\Sprites\Battle\UI\MoveButtons.png"
       inkscape:export-xdpi="96"
       inkscape:export-ydpi="96" />
    <rect
       style="fill:#5090d6;fill-opacity:1;stroke:none;stroke-width:1.28089;stroke-linecap:square;stroke-linejoin:round;stroke-miterlimit:4;stroke-dasharray:none;stroke-opacity:0.451681;paint-order:normal"
       id="rect313042"
       width="83.460754"
       height="12.173727"
       x="-29.733208"
       y="162.96072"
       ry="6.0868635"
       inkscape:export-filename="C:\Users\aniki\dev\PocketWarriorMonsters\Assets\Resources\Sprites\Battle\UI\MoveButtons.png"
       inkscape:export-xdpi="96"
       inkscape:export-ydpi="96" />
    <path
       id="path313044"
       style="fill:#000000;fill-opacity:1;stroke:none;stroke-width:0.390766;stroke-linecap:square;stroke-linejoin:round;stroke-miterlimit:4;stroke-dasharray:none;stroke-opacity:1;paint-order:normal"
       d="m 30.896048,162.9607 -5.06395,12.17377 h 21.80854 c 3.37212,0 6.08687,-2.71476 6.08687,-6.08688 0,-3.37211 -2.71475,-6.08689 -6.08687,-6.08689 z"
       inkscape:export-filename="C:\Users\aniki\dev\PocketWarriorMonsters\Assets\Resources\Sprites\Battle\UI\MoveButtons.png"
       inkscape:export-xdpi="96"
       inkscape:export-ydpi="96" />
    <rect
       style="fill:#5a5364;fill-opacity:1;stroke:none;stroke-width:1.28089;stroke-linecap:square;stroke-linejoin:round;stroke-miterlimit:4;stroke-dasharray:none;stroke-opacity:0.451681;paint-order:normal"
       id="rect313050"
       width="83.460754"
       height="12.173727"
       x="-29.733208"
       y="175.13443"
       ry="6.0868635"
       inkscape:export-filename="C:\Users\aniki\dev\PocketWarriorMonsters\Assets\Resources\Sprites\Battle\UI\MoveButtons.png"
       inkscape:export-xdpi="96"
       inkscape:export-ydpi="96" />
    <path
       id="path313052"
       style="fill:#000000;fill-opacity:1;stroke:none;stroke-width:0.390766;stroke-linecap:square;stroke-linejoin:round;stroke-miterlimit:4;stroke-dasharray:none;stroke-opacity:1;paint-order:normal"
       d="m 30.896048,175.13443 -5.06395,12.17376 h 21.80854 c 3.37212,0 6.08687,-2.71475 6.08687,-6.08689 0,-3.37211 -2.71475,-6.08687 -6.08687,-6.08687 z"
       inkscape:export-filename="C:\Users\aniki\dev\PocketWarriorMonsters\Assets\Resources\Sprites\Battle\UI\MoveButtons.png"
       inkscape:export-xdpi="96"
       inkscape:export-ydpi="96" />
    <rect
       style="fill:#8fa9de;fill-opacity:1;stroke:none;stroke-width:1.28089;stroke-linecap:square;stroke-linejoin:round;stroke-miterlimit:4;stroke-dasharray:none;stroke-opacity:0.451681;paint-order:normal"
       id="rect313058"
       width="83.460754"
       height="12.173727"
       x="-29.733208"
       y="187.30815"
       ry="6.0868635"
       inkscape:export-filename="C:\Users\aniki\dev\PocketWarriorMonsters\Assets\Resources\Sprites\Battle\UI\MoveButtons.png"
       inkscape:export-xdpi="96"
       inkscape:export-ydpi="96" />
    <path
       id="path313060"
       style="fill:#000000;fill-opacity:1;stroke:none;stroke-width:0.390766;stroke-linecap:square;stroke-linejoin:round;stroke-miterlimit:4;stroke-dasharray:none;stroke-opacity:1;paint-order:normal"
       d="m 30.896046,187.3079 -5.06394,12.17377 h 21.80854 c 3.37211,0 6.08688,-2.71476 6.08688,-6.08689 0,-3.37212 -2.71477,-6.08688 -6.08688,-6.08688 z"
       inkscape:export-filename="C:\Users\aniki\dev\PocketWarriorMonsters\Assets\Resources\Sprites\Battle\UI\MoveButtons.png"
       inkscape:export-xdpi="96"
       inkscape:export-ydpi="96" />
    <rect
       style="fill:#5a8ea2;fill-opacity:1;stroke:none;stroke-width:1.28089;stroke-linecap:square;stroke-linejoin:round;stroke-miterlimit:4;stroke-dasharray:none;stroke-opacity:0.451681;paint-order:normal"
       id="rect313066"
       width="83.460754"
       height="12.173727"
       x="-29.733208"
       y="199.48187"
       ry="6.0868635"
       inkscape:export-filename="C:\Users\aniki\dev\PocketWarriorMonsters\Assets\Resources\Sprites\Battle\UI\MoveButtons.png"
       inkscape:export-xdpi="96"
       inkscape:export-ydpi="96" />
    <path
       id="path313068"
       style="fill:#000000;fill-opacity:1;stroke:none;stroke-width:0.390766;stroke-linecap:square;stroke-linejoin:round;stroke-miterlimit:4;stroke-dasharray:none;stroke-opacity:1;paint-order:normal"
       d="m 30.896046,199.48164 -5.06394,12.17377 h 21.80854 c 3.37211,0 6.08688,-2.71476 6.08688,-6.08691 0,-3.3721 -2.71477,-6.08686 -6.08688,-6.08686 z"
       inkscape:export-filename="C:\Users\aniki\dev\PocketWarriorMonsters\Assets\Resources\Sprites\Battle\UI\MoveButtons.png"
       inkscape:export-xdpi="96"
       inkscape:export-ydpi="96" />
    <rect
       style="fill:#73cec0;fill-opacity:1;stroke:none;stroke-width:1.28089;stroke-linecap:square;stroke-linejoin:round;stroke-miterlimit:4;stroke-dasharray:none;stroke-opacity:0.451681;paint-order:normal"
       id="rect313074"
       width="83.460754"
       height="12.173727"
       x="-29.733208"
       y="211.65562"
       ry="6.0868635"
       inkscape:export-filename="C:\Users\aniki\dev\PocketWarriorMonsters\Assets\Resources\Sprites\Battle\UI\MoveButtons.png"
       inkscape:export-xdpi="96"
       inkscape:export-ydpi="96" />
    <path
       id="path313076"
       style="fill:#000000;fill-opacity:1;stroke:none;stroke-width:0.390766;stroke-linecap:square;stroke-linejoin:round;stroke-miterlimit:4;stroke-dasharray:none;stroke-opacity:1;paint-order:normal"
       d="m 30.896046,211.65537 -5.06394,12.17376 h 21.80854 c 3.37211,0 6.08688,-2.71476 6.08688,-6.08689 0,-3.37212 -2.71477,-6.08687 -6.08688,-6.08687 z"
       inkscape:export-filename="C:\Users\aniki\dev\PocketWarriorMonsters\Assets\Resources\Sprites\Battle\UI\MoveButtons.png"
       inkscape:export-xdpi="96"
       inkscape:export-ydpi="96" />
    <rect
       style="fill:#c5b68c;fill-opacity:1;stroke:none;stroke-width:1.28089;stroke-linecap:square;stroke-linejoin:round;stroke-miterlimit:4;stroke-dasharray:none;stroke-opacity:0.451681;paint-order:normal"
       id="rect313082"
       width="83.460754"
       height="12.173727"
       x="-29.733208"
       y="223.82928"
       ry="6.0868635"
       inkscape:export-filename="C:\Users\aniki\dev\PocketWarriorMonsters\Assets\Resources\Sprites\Battle\UI\MoveButtons.png"
       inkscape:export-xdpi="96"
       inkscape:export-ydpi="96" />
    <path
       id="path313084"
       style="fill:#000000;fill-opacity:1;stroke:none;stroke-width:0.390766;stroke-linecap:square;stroke-linejoin:round;stroke-miterlimit:4;stroke-dasharray:none;stroke-opacity:1;paint-order:normal"
       d="m 30.896046,223.82909 -5.06394,12.17377 h 21.80854 c 3.37211,0 6.08688,-2.71477 6.08688,-6.08689 0,-3.37211 -2.71477,-6.08688 -6.08688,-6.08688 z"
       inkscape:export-filename="C:\Users\aniki\dev\PocketWarriorMonsters\Assets\Resources\Sprites\Battle\UI\MoveButtons.png"
       inkscape:export-xdpi="96"
       inkscape:export-ydpi="96" />
    <rect
       style="fill:#63bc5a;fill-opacity:1;stroke:none;stroke-width:1.28089;stroke-linecap:square;stroke-linejoin:round;stroke-miterlimit:4;stroke-dasharray:none;stroke-opacity:0.451681;paint-order:normal"
       id="rect313090"
       width="83.460754"
       height="12.173727"
       x="-29.733208"
       y="236.00305"
       ry="6.0868635"
       inkscape:export-filename="C:\Users\aniki\dev\PocketWarriorMonsters\Assets\Resources\Sprites\Battle\UI\MoveButtons.png"
       inkscape:export-xdpi="96"
       inkscape:export-ydpi="96" />
    <path
       id="path313092"
       style="fill:#000000;fill-opacity:1;stroke:none;stroke-width:0.390766;stroke-linecap:square;stroke-linejoin:round;stroke-miterlimit:4;stroke-dasharray:none;stroke-opacity:1;paint-order:normal"
       d="m 30.896046,236.00282 -5.06394,12.17375 h 21.80854 c 3.37211,0 6.08688,-2.71474 6.08688,-6.08689 0,-3.3721 -2.71477,-6.08686 -6.08688,-6.08686 z"
       inkscape:export-filename="C:\Users\aniki\dev\PocketWarriorMonsters\Assets\Resources\Sprites\Battle\UI\MoveButtons.png"
       inkscape:export-xdpi="96"
       inkscape:export-ydpi="96" />
    <rect
       style="fill:#ec8fe6;fill-opacity:1;stroke:none;stroke-width:1.28089;stroke-linecap:square;stroke-linejoin:round;stroke-miterlimit:4;stroke-dasharray:none;stroke-opacity:0.451681;paint-order:normal"
       id="rect313098"
       width="83.460754"
       height="12.173727"
       x="-29.733208"
       y="248.17674"
       ry="6.0868635"
       inkscape:export-filename="C:\Users\aniki\dev\PocketWarriorMonsters\Assets\Resources\Sprites\Battle\UI\MoveButtons.png"
       inkscape:export-xdpi="96"
       inkscape:export-ydpi="96" />
    <path
       id="path313100"
       style="fill:#000000;fill-opacity:1;stroke:none;stroke-width:0.390766;stroke-linecap:square;stroke-linejoin:round;stroke-miterlimit:4;stroke-dasharray:none;stroke-opacity:1;paint-order:normal"
       d="m 30.896046,248.17654 -5.06394,12.17376 h 21.80854 c 3.37211,0 6.08688,-2.71475 6.08688,-6.08688 0,-3.37212 -2.71477,-6.08688 -6.08688,-6.08688 z"
       inkscape:export-filename="C:\Users\aniki\dev\PocketWarriorMonsters\Assets\Resources\Sprites\Battle\UI\MoveButtons.png"
       inkscape:export-xdpi="96"
       inkscape:export-ydpi="96" />
    <g
       id="g314190"
       transform="matrix(0.63928459,0,0,0.63928459,-84.839501,-14.820572)"
       inkscape:export-filename="C:\Users\aniki\dev\PocketWarriorMonsters\Assets\Resources\Sprites\Battle\UI\MoveButtons.png"
       inkscape:export-xdpi="96"
       inkscape:export-ydpi="96">
      <path
         id="path314178"
         style="fill:#ffffff;stroke:none;stroke-width:8.53844;stroke-linecap:round;stroke-linejoin:round;stroke-miterlimit:4;stroke-dasharray:none"
         d="m 359.79492,461.68164 c 0.074,-0.10493 0.14689,-0.20985 0.21875,-0.31641 0.0818,-0.12127 0.16327,-0.24385 0.24219,-0.36718 0.0789,-0.12334 0.15642,-0.2477 0.23242,-0.37305 0.076,-0.12535 0.14961,-0.25158 0.22266,-0.37891 0.073,-0.12732 0.1448,-0.25552 0.21484,-0.38476 0.07,-0.12925 0.1381,-0.25951 0.20508,-0.39063 0.067,-0.13111 0.13338,-0.26354 0.19726,-0.39648 0.0639,-0.13295 0.12677,-0.26762 0.1875,-0.40234 0.0607,-0.13473 0.11825,-0.2698 0.17579,-0.40626 0.0575,-0.13645 0.11367,-0.27396 0.16797,-0.4121 0.0543,-0.13815 0.10719,-0.27624 0.1582,-0.41602 0.051,-0.13978 0.10077,-0.2805 0.14844,-0.42188 0.0477,-0.14137 0.0944,-0.28481 0.13867,-0.42773 0.0443,-0.14291 0.0861,-0.28528 0.12695,-0.42969 0.0408,-0.14441 0.0798,-0.28968 0.11719,-0.43554 0.0374,-0.14586 0.0736,-0.2922 0.10742,-0.43946 0.0338,-0.14726 0.0654,-0.29669 0.0957,-0.44531 0.0303,-0.14862 0.0593,-0.29734 0.0859,-0.44727 0.0267,-0.14992 0.0512,-0.29998 0.0742,-0.45117 0.023,-0.15118 0.0432,-0.30268 0.0625,-0.45507 0.0193,-0.1524 0.0372,-0.30543 0.0527,-0.45899 0.0155,-0.15356 0.0293,-0.30821 0.041,-0.46289 0.0117,-0.15468 0.0214,-0.30909 0.0293,-0.46484 0.008,-0.15576 0.0136,-0.31393 0.0176,-0.47071 0.004,-0.15677 0.006,-0.31295 0.006,-0.4707 0,-0.15775 -0.002,-0.31588 -0.006,-0.47266 -0.004,-0.15677 -0.01,-0.313 -0.0176,-0.46875 -0.008,-0.15574 -0.0176,-0.31017 -0.0293,-0.46484 -0.0117,-0.15467 -0.0255,-0.30934 -0.041,-0.46289 -0.0155,-0.15355 -0.0334,-0.30661 -0.0527,-0.45899 -0.0193,-0.15237 -0.0395,-0.30391 -0.0625,-0.45507 -0.023,-0.15117 -0.0476,-0.30127 -0.0742,-0.45117 -0.0267,-0.14991 -0.0557,-0.29868 -0.0859,-0.44727 -0.0303,-0.14859 -0.0619,-0.29808 -0.0957,-0.44531 -0.0338,-0.14724 -0.07,-0.29363 -0.10742,-0.43946 -0.0374,-0.14583 -0.0763,-0.29116 -0.11719,-0.43554 -0.0409,-0.14438 -0.0827,-0.28681 -0.12695,-0.42969 -0.0443,-0.14288 -0.091,-0.28445 -0.13867,-0.42578 -0.0477,-0.14134 -0.0974,-0.28214 -0.14844,-0.42188 -0.051,-0.13974 -0.10391,-0.27986 -0.1582,-0.41797 -0.0543,-0.1381 -0.11044,-0.27569 -0.16797,-0.4121 -0.0575,-0.13642 -0.11505,-0.27158 -0.17579,-0.40626 -0.0607,-0.13467 -0.12361,-0.26749 -0.1875,-0.40039 -0.0639,-0.13289 -0.13028,-0.26541 -0.19726,-0.39648 -0.067,-0.13107 -0.13504,-0.26143 -0.20508,-0.39063 -0.07,-0.12919 -0.1418,-0.25749 -0.21484,-0.38476 -0.073,-0.12727 -0.14665,-0.25361 -0.22266,-0.37891 -0.076,-0.1253 -0.1535,-0.24976 -0.23242,-0.37304 -0.0789,-0.12329 -0.16041,-0.24402 -0.24219,-0.36524 -0.0818,-0.12122 -0.1654,-0.24222 -0.25,-0.36133 -0.0846,-0.11911 -0.17044,-0.23656 -0.25781,-0.35351 -0.0874,-0.11695 -0.17553,-0.23291 -0.26563,-0.34766 -0.0901,-0.11474 -0.18066,-0.2293 -0.27343,-0.34179 -0.0928,-0.1125 -0.1878,-0.2238 -0.28321,-0.33399 -0.0954,-0.11019 -0.19107,-0.21833 -0.28906,-0.32617 -0.098,-0.10785 -0.19831,-0.21486 -0.29883,-0.32031 -0.10052,-0.10545 -0.20167,-0.20949 -0.30468,-0.3125 -0.10301,-0.10301 -0.20705,-0.20612 -0.3125,-0.30664 -0.10546,-0.10053 -0.21247,-0.19889 -0.32032,-0.29688 -0.10784,-0.098 -0.21793,-0.19561 -0.32812,-0.29101 -0.0934,-0.0809 -0.18815,-0.15931 -0.2832,-0.23829 a 22.261507,22.261507 0 0 1 -5.23633,-3.04101 c -0.0478,-0.0179 -0.0946,-0.0372 -0.14258,-0.0547 -0.13974,-0.051 -0.28054,-0.0988 -0.42188,-0.14648 -0.14133,-0.0477 -0.2829,-0.0944 -0.42578,-0.13868 -0.14288,-0.0443 -0.28726,-0.0861 -0.43164,-0.12695 -0.14438,-0.0408 -0.28972,-0.0798 -0.43555,-0.11719 -0.0318,-0.008 -0.0639,-0.0155 -0.0957,-0.0234 a 18.719905,18.719905 0 0 0 -3.08203,10.24023 18.719905,18.719905 0 0 0 13.51953,17.96875 z m -10.4375,-28.20898 c 0.0318,0.008 0.0639,0.0153 0.0957,0.0234 0.14583,0.0374 0.29117,0.0763 0.43555,0.11719 0.14438,0.0409 0.28876,0.0827 0.43164,0.12695 0.14288,0.0443 0.28445,0.091 0.42578,0.13868 0.14134,0.0477 0.28214,0.0955 0.42188,0.14648 0.0479,0.0175 0.0948,0.0368 0.14258,0.0547 a 22.261507,22.261507 0 0 1 -1.50977,-1.27735 18.719905,18.719905 0 0 0 -0.44336,0.66993 z"
         transform="scale(0.26458333)" />
      <path
         id="path314180"
         style="fill:#ffffff;stroke:none;stroke-width:2.25913;stroke-linecap:round;stroke-linejoin:round;stroke-miterlimit:4;stroke-dasharray:none"
         d="m 97.790431,122.15327 c -0.01958,-0.0278 -0.03887,-0.0555 -0.05788,-0.0837 -0.02164,-0.0321 -0.0432,-0.0645 -0.06408,-0.0972 -0.02088,-0.0326 -0.04139,-0.0655 -0.0615,-0.0987 -0.02011,-0.0332 -0.03958,-0.0666 -0.05891,-0.10026 -0.01931,-0.0337 -0.03831,-0.0676 -0.05684,-0.1018 -0.01852,-0.0342 -0.03654,-0.0687 -0.05426,-0.10335 -0.01773,-0.0347 -0.03529,-0.0697 -0.05219,-0.1049 -0.01691,-0.0352 -0.03354,-0.0708 -0.04961,-0.10646 -0.01606,-0.0356 -0.03129,-0.0714 -0.04651,-0.10749 -0.01521,-0.0361 -0.03008,-0.0725 -0.04444,-0.10903 -0.01437,-0.0366 -0.02836,-0.0731 -0.04186,-0.11007 -0.01349,-0.037 -0.02666,-0.0742 -0.03927,-0.11163 -0.01262,-0.0374 -0.02498,-0.0754 -0.03669,-0.11317 -0.01172,-0.0378 -0.02278,-0.0755 -0.03359,-0.11368 -0.0108,-0.0382 -0.02111,-0.0767 -0.03101,-0.11524 -0.0099,-0.0386 -0.01947,-0.0773 -0.02842,-0.11627 -0.0089,-0.039 -0.0173,-0.0785 -0.02532,-0.11783 -0.008,-0.0393 -0.01569,-0.0787 -0.02273,-0.11834 -0.0071,-0.0397 -0.01355,-0.0794 -0.01963,-0.11937 -0.0061,-0.04 -0.01143,-0.0801 -0.01654,-0.1204 -0.0051,-0.0403 -0.0098,-0.0808 -0.01394,-0.12144 -0.0041,-0.0406 -0.0078,-0.0816 -0.01085,-0.12248 -0.0031,-0.0409 -0.0057,-0.0818 -0.0078,-0.12299 -0.0021,-0.0412 -0.0036,-0.0831 -0.0047,-0.12454 -0.0011,-0.0415 -0.0016,-0.0828 -0.0016,-0.12454 0,-0.0417 5.29e-4,-0.0836 0.0016,-0.12505 0.0011,-0.0415 0.0026,-0.0828 0.0047,-0.12403 0.0021,-0.0412 0.0047,-0.0821 0.0078,-0.12299 0.0031,-0.0409 0.0067,-0.0818 0.01085,-0.12247 0.0041,-0.0406 0.0088,-0.0811 0.01394,-0.12144 0.0051,-0.0403 0.01045,-0.0804 0.01654,-0.12041 0.0061,-0.04 0.01259,-0.0797 0.01963,-0.11937 0.0071,-0.0397 0.01474,-0.079 0.02273,-0.11834 0.008,-0.0393 0.01638,-0.0789 0.02532,-0.11782 0.0089,-0.039 0.01852,-0.0777 0.02842,-0.11627 0.0099,-0.0386 0.02019,-0.077 0.03101,-0.11524 0.01082,-0.0382 0.02188,-0.0759 0.03359,-0.11369 0.01172,-0.0378 0.02408,-0.0753 0.03669,-0.11265 0.01262,-0.0374 0.02577,-0.0747 0.03927,-0.11163 0.01349,-0.037 0.02749,-0.074 0.04186,-0.11058 0.01437,-0.0365 0.02922,-0.073 0.04444,-0.10904 0.01521,-0.0361 0.03044,-0.0718 0.04651,-0.10749 0.01606,-0.0356 0.0327,-0.0708 0.04961,-0.10593 0.01691,-0.0352 0.03447,-0.0702 0.05219,-0.10491 0.01773,-0.0347 0.03573,-0.0692 0.05426,-0.10335 0.01852,-0.0342 0.03752,-0.0681 0.05684,-0.1018 0.01931,-0.0337 0.0388,-0.0671 0.05891,-0.10025 0.02011,-0.0332 0.04061,-0.0661 0.0615,-0.0987 0.02087,-0.0326 0.04244,-0.0646 0.06408,-0.0966 0.02164,-0.0321 0.04376,-0.0641 0.06615,-0.0956 0.02238,-0.0315 0.0451,-0.0626 0.06821,-0.0935 0.02312,-0.0309 0.04644,-0.0616 0.07028,-0.092 0.02384,-0.0304 0.0478,-0.0607 0.07234,-0.0904 0.02455,-0.0298 0.04969,-0.0592 0.07493,-0.0884 0.02524,-0.0292 0.05055,-0.0578 0.07648,-0.0863 0.02593,-0.0285 0.05247,-0.0569 0.07906,-0.0847 0.0266,-0.0279 0.05336,-0.0554 0.08061,-0.0827 0.02725,-0.0273 0.05478,-0.0545 0.08268,-0.0811 0.0279,-0.0266 0.05622,-0.0526 0.08475,-0.0785 0.02853,-0.0259 0.05766,-0.0518 0.08682,-0.077 0.02471,-0.0214 0.04978,-0.0422 0.07493,-0.0631 a 5.8900237,5.8900237 0 0 0 1.385449,-0.8046 c 0.0126,-0.005 0.025,-0.01 0.0377,-0.0145 0.037,-0.0135 0.0742,-0.0261 0.11162,-0.0388 0.0374,-0.0126 0.0748,-0.025 0.11265,-0.0367 0.0378,-0.0117 0.076,-0.0228 0.11421,-0.0336 0.0382,-0.0108 0.0767,-0.0211 0.11524,-0.031 0.008,-0.002 0.0169,-0.004 0.0253,-0.006 a 4.9529748,4.9529748 0 0 1 0.81546,2.70939 4.9529748,4.9529748 0 0 1 -3.577049,4.75423 z m 2.761589,-7.46363 c -0.008,0.002 -0.0169,0.004 -0.0253,0.006 -0.0386,0.01 -0.077,0.0202 -0.11524,0.031 -0.0382,0.0108 -0.0764,0.0219 -0.11421,0.0336 -0.0378,0.0117 -0.0753,0.0241 -0.11265,0.0367 -0.0374,0.0126 -0.0747,0.0253 -0.11162,0.0388 -0.0127,0.005 -0.0251,0.01 -0.0377,0.0145 a 5.8900237,5.8900237 0 0 0 0.39946,-0.33797 4.9529748,4.9529748 0 0 1 0.1173,0.17725 z" />
      <g
         id="g314188"
         transform="translate(-0.36961568)">
        <path
           id="path314182"
           style="fill:#ffffff;stroke:none;stroke-width:2.25913;stroke-linecap:round;stroke-linejoin:round;stroke-miterlimit:4;stroke-dasharray:none"
           d="m 96.891339,112.52233 a 4.9529748,4.9529748 0 0 0 -3.464906,1.4211 4.9529748,4.9529748 0 0 0 3.403928,1.35857 4.9529748,4.9529748 0 0 0 3.468519,-1.418 4.9529748,4.9529748 0 0 0 -3.407541,-1.36167 z" />
        <path
           style="fill:#ffffff;stroke:#ffffff;stroke-width:1;stroke-linecap:round;stroke-linejoin:miter;stroke-miterlimit:4;stroke-dasharray:none;stroke-opacity:1"
           d="m 96.139019,114.15804 -2.68153,-3.28657"
           id="path314184" />
        <path
           style="fill:#ffffff;stroke:#ffffff;stroke-width:1;stroke-linecap:round;stroke-linejoin:miter;stroke-miterlimit:4;stroke-dasharray:none;stroke-opacity:1"
           d="m 97.586303,114.09494 2.681527,-3.28657"
           id="path314186" />
      </g>
    </g>
    <g
       id="g314196"
       transform="matrix(0.74997619,0,0,0.68720192,-80.208774,1.1233559)"
       inkscape:export-filename="C:\Users\aniki\dev\PocketWarriorMonsters\Assets\Resources\Sprites\Battle\UI\MoveButtons.png"
       inkscape:export-xdpi="96"
       inkscape:export-ydpi="96">
      <rect
         style="fill:#ffffff;stroke:none;stroke-width:0.590907;stroke-linecap:square;stroke-linejoin:miter;stroke-miterlimit:4;stroke-dasharray:none;paint-order:normal"
         id="rect314192"
         width="4.2956624"
         height="5.826354"
         x="31.950085"
         y="106.21889"
         rx="0"
         ry="0"
         transform="matrix(1,0,0.38813684,0.92160176,0,0)" />
      <path
         id="path314194"
         style="fill:#ffffff;stroke:none;stroke-width:0.590907;stroke-linecap:square"
         transform="matrix(1,0,0.38813684,0.92160176,0,0)"
         d="m 29.453215,110.69747 h 4.295662 v 5.82636 z"
         sodipodi:nodetypes="cccc" />
    </g>
    <g
       id="g314208"
       transform="matrix(1.1266219,0,0,1.1266219,-168.25138,-108.75292)"
       inkscape:export-filename="C:\Users\aniki\dev\PocketWarriorMonsters\Assets\Resources\Sprites\Battle\UI\MoveButtons.png"
       inkscape:export-xdpi="96"
       inkscape:export-ydpi="96">
      <ellipse
         style="fill:none;stroke:#ffffff;stroke-width:1;stroke-linecap:round;stroke-linejoin:round;stroke-miterlimit:4;stroke-dasharray:none"
         id="ellipse314198"
         cx="128.79066"
         cy="170.57333"
         rx="2.5704303"
         ry="2.2182753" />
      <g
         id="g314206"
         transform="matrix(0.59154633,0,0,0.59154633,62.370324,119.40123)"
         style="stroke-width:1.69048;stroke-miterlimit:4;stroke-dasharray:none">
        <path
           id="path314200"
           style="fill:#ffffff;stroke-width:1.69048;stroke-linecap:square;stroke-linejoin:round;stroke-miterlimit:4;stroke-dasharray:none"
           d="m 111.15808,90.983589 c 0,0.748893 -0.6071,1.35599 -1.35599,1.35599 -0.74889,0 -1.00778,-0.686686 -1.00778,-1.435579 0,-0.748892 0.25889,-1.515167 1.00778,-1.515167 0.74889,0 1.35599,0.845864 1.35599,1.594756 z"
           sodipodi:nodetypes="sssss" />
        <path
           id="path314202"
           style="fill:#ffffff;stroke-width:1.69048;stroke-linecap:square;stroke-linejoin:round;stroke-miterlimit:4;stroke-dasharray:none"
           d="m 113.63855,90.983589 c 0,0.748893 -0.6071,1.35599 -1.35599,1.35599 -0.74889,0 -1.35599,-0.607097 -1.35599,-1.35599 0,-0.748892 0.74638,-0.709328 1.49527,-0.709328 0.74889,0 1.21671,-0.03956 1.21671,0.709328 z"
           sodipodi:nodetypes="sssss" />
        <path
           id="path314204"
           style="fill:#ffffff;stroke-width:1.69048;stroke-linecap:square;stroke-linejoin:round;stroke-miterlimit:4;stroke-dasharray:none"
           d="m 115.72107,90.904 c 0,0.748893 -0.20915,1.435579 -0.95804,1.435579 -0.74889,0 -1.35599,-0.607097 -1.35599,-1.35599 0,-0.748892 0.6071,-1.594756 1.35599,-1.594756 0.74889,0 0.95804,0.766275 0.95804,1.515167 z"
           sodipodi:nodetypes="sssss" />
      </g>
    </g>
    <g
       id="g314214"
       transform="matrix(0.78249466,0,0,0.78249466,-123.76617,28.292261)"
       inkscape:export-filename="C:\Users\aniki\dev\PocketWarriorMonsters\Assets\Resources\Sprites\Battle\UI\MoveButtons.png"
       inkscape:export-xdpi="96"
       inkscape:export-ydpi="96">
      <path
         id="path314210"
         style="fill:#ffffff;stroke:none;stroke-width:1.11521;stroke-linecap:square;stroke-linejoin:round;stroke-miterlimit:4;stroke-dasharray:none;paint-order:normal"
         d="m 125.57479,85.986217 c -0.50672,0.895737 -0.45833,2.028139 -0.45833,2.028139 -2.2e-4,2.058907 1.70036,3.249871 3.79825,3.249929 1.18321,-9.73e-4 1.74462,-0.329075 2.50024,-1.201835 -1.04818,0.569626 -1.71965,0.545507 -2.61611,0.546488 -0.88256,-0.02521 -1.79129,-0.834373 -2.94903,-2.559048 -0.36432,-0.631169 -0.36333,-1.249269 -0.27502,-2.063673 z"
         sodipodi:nodetypes="ccccccc" />
      <path
         id="path314212"
         style="fill:#ffffff;stroke-width:1.065;stroke-linecap:square;stroke-linejoin:round"
         d="m 127.69891,84.115624 c -0.64067,0.475877 -1.85674,1.417517 -1.85674,3.017903 -0.0831,2.289921 0.78656,3.493541 2.95667,3.475411 -1.52278,-0.179336 -1.60696,-1.608976 -1.51644,-1.799007 0,-0.603858 0.69355,-1.422302 1.51644,-1.409461 0.82972,0.01295 1.56291,0.657073 1.56291,1.409461 0,0.591871 -0.0921,0.884611 -0.34319,1.255808 1.13278,-0.480912 2.02631,-1.444798 2.02631,-2.653677 0,-1.197316 -0.6229,-2.403606 -1.2441,-2.819658 0,0 0.15924,0.289611 0.14235,0.70776 -0.0167,0.41342 -0.20991,0.882282 -0.94505,0.882282 -0.71398,0 -0.99181,-0.527453 -0.99181,-0.864742 0,-0.510007 0.21446,-0.898202 0.74315,-0.9859 0.26207,-0.04347 0.3588,-0.573869 0.22713,-0.812573 -0.1774,-0.357251 -0.17577,-0.286597 -0.58371,-0.776133 -0.38767,-0.465213 -1.2806,-0.937887 -1.2806,-0.937887 0.39766,0.935472 0.52347,1.52664 -0.41332,2.310413 z"
         sodipodi:nodetypes="ccccsccscsccscscc" />
    </g>
    <g
       id="g314222"
       transform="matrix(0.76975168,0,0,0.76975168,-104.28571,13.32652)"
       style="fill:#ffffff"
       inkscape:export-filename="C:\Users\aniki\dev\PocketWarriorMonsters\Assets\Resources\Sprites\Battle\UI\MoveButtons.png"
       inkscape:export-xdpi="96"
       inkscape:export-ydpi="96">
      <path
         id="path314216"
         style="fill:#ffffff;fill-opacity:1;stroke:none;stroke-width:2.79645;stroke-linecap:square;stroke-linejoin:round;stroke-miterlimit:4;stroke-dasharray:none;paint-order:normal"
         d="m 399.04732,453.89181 c -2.05073,1.444 -2.10893,1.85303 -0.41292,5.43879 0.81793,1.7293 2.02814,2.83557 2.05663,4.73711 1.96607,0.40144 4.37784,3.82292 4.47036,5.84206 0.23956,5.22847 -4.08153,7.27827 -9.88052,7.27827 0,0 2.65546,6.6341 7.28096,6.3216 6.39867,0.11941 11.5896,-8.77779 11.5896,-14.50964 0,-9.73402 -9.21498,-15.32916 -15.10411,-15.10819 z"
         transform="scale(0.26458333)"
         sodipodi:nodetypes="cscscccc" />
      <path
         id="path314218"
         style="fill:#ffffff;fill-opacity:1;stroke:none;stroke-width:0.739894;stroke-linecap:square;stroke-linejoin:round;stroke-miterlimit:4;stroke-dasharray:none;paint-order:normal"
         d="m 101.73333,124.70143 c 0,1.5049 0.85715,3.26952 3.23654,3.24784 -0.52917,-0.52917 -1.62283,-1.84111 -0.24158,-3.77147 z"
         sodipodi:nodetypes="cccc" />
      <path
         id="path314220"
         style="fill:#ffffff;fill-opacity:1;stroke-width:3.92693;stroke-linecap:square;stroke-linejoin:round"
         d="m 387.36497,458.24977 -4.78305,10.28373 c 0,0 11.06624,-2.01706 14.92746,-3.33746 4.53635,-3.04643 1.66054,-11.08436 1.53794,-11.30423 0.55498,-0.17732 0.8973,-2.46988 0.8973,-3.37132 0.0183,-0.85395 -0.26372,-2.64646 -0.26372,-2.64646 -0.89507,1.7748 -2.74913,4.19773 -4.69741,6.10634 -2.48627,2.43563 -5.61214,3.94655 -7.61852,4.2694 z m 5.32509,1.39798 c 0,0 -0.0914,1.99352 -0.40034,3.00999 -0.97228,0.79549 -3.88852,1.44456 -3.88852,1.44456 0,0 1.0219,-2.72228 1.68481,-3.47358 z"
         transform="scale(0.26458333)"
         sodipodi:nodetypes="ccccccscccccc" />
    </g>
    <g
       id="g314232"
       transform="matrix(1.1266219,0,0,1.1266219,-122.96954,72.088841)"
       inkscape:export-filename="C:\Users\aniki\dev\PocketWarriorMonsters\Assets\Resources\Sprites\Battle\UI\MoveButtons.png"
       inkscape:export-xdpi="96"
       inkscape:export-ydpi="96">
      <path
         id="path314228"
         style="fill:#ffffff;stroke:#ffffff;stroke-width:0.0600937;stroke-linecap:square;stroke-linejoin:round;stroke-miterlimit:4;stroke-dasharray:none;paint-order:normal"
         d="m 86.725063,40.519531 v 4.63978 h 5.072648 v -4.63978 h -0.692636 v 1.83287 h -0.454542 v -1.83287 h -0.670668 v 1.83287 h -0.45454 v -1.83287 h -0.670668 v 1.83287 h -0.454542 v -1.83287 h -0.67099 v 1.83287 h -0.454541 v -1.83287 z" />
      <path
         id="path314230"
         style="fill:#ffffff;stroke-width:0.315863;stroke-linecap:square"
         d="m 85.959565,42.473961 h 0.4128 v 2.68521 h -0.4128 l -0.591147,-1.40201 z"
         sodipodi:nodetypes="cccccc" />
    </g>
    <path
       id="path314234"
       style="fill:#ffffff;stroke-width:0.0519418;stroke-linecap:square;stroke-linejoin:round"
       d="m -23.270545,129.38054 c -1.735662,0 -3.14259,1.40691 -3.14259,3.14259 0,1.73566 1.406928,3.14286 3.14259,3.14286 0.363273,0 1.174531,0.04 1.998078,-0.0808 0.9382,-0.13742 1.54996,-0.32939 1.337352,-0.51554 -0.979952,-0.85808 -0.19284,-1.58798 -0.19284,-2.54653 0,-1.73566 -1.406916,-3.14259 -3.14259,-3.14259 z m -1.71885,1.88829 c 0.0363,0.42406 0.547635,0.79117 0.900947,0.74739 -0.03642,0.35979 -0.339225,0.63367 -0.700859,0.63398 -0.389384,0 -0.705032,-0.31565 -0.705045,-0.70504 -1.2e-4,-0.31243 0.205384,-0.58768 0.504957,-0.67633 z m 2.804003,0 c 0.299573,0.0886 0.505076,0.3639 0.504956,0.67633 -1.3e-5,0.38939 -0.315661,0.70504 -0.705045,0.70504 -0.361633,-3.1e-4 -0.664402,-0.27419 -0.700859,-0.63398 0.353312,0.0438 0.864647,-0.32333 0.900948,-0.74739 z"
       inkscape:export-filename="C:\Users\aniki\dev\PocketWarriorMonsters\Assets\Resources\Sprites\Battle\UI\MoveButtons.png"
       inkscape:export-xdpi="96"
       inkscape:export-ydpi="96" />
    <path
       style="color:#000000;fill:#ffffff;fill-rule:evenodd;stroke-width:0.249965;-inkscape-stroke:none"
       d="m -22.650573,141.17753 c 1.677919,0.16652 3.064103,1.65911 2.853595,3.40625 -0.170614,1.41617 -1.455555,2.58805 -2.946843,2.36098 -1.153981,-0.17561 -2.114964,-1.25876 -1.861063,-2.49621 0.09154,-0.44598 0.346449,-0.83631 0.708878,-1.10093 0.362442,-0.26462 0.864528,-0.39552 1.357724,-0.24215 0.319194,0.0992 0.579017,0.30396 0.753804,0.59611 0.174774,0.29216 0.376539,0.6193 0.07658,1.12725 -0.072,0.12182 -0.258399,0.21797 -0.436104,0.28333 -0.0708,0.0189 -0.183603,0.0377 -0.461165,-0.0282 -0.07984,-0.0535 -0.181336,-0.0768 -0.293145,-0.34366 0,0 0.257844,0.14259 0.46851,0.072 0.281953,-0.0948 0.251779,-0.27573 0.251779,-0.27573 0.0073,-0.13351 -0.03039,-0.24182 -0.145506,-0.34234 -0.144214,-0.15688 -0.355603,-0.16912 -0.515218,-0.16912 -0.173461,0 -0.312343,0.0241 -0.46412,0.135 -0.151776,0.11084 -0.278358,0.30544 -0.31636,0.49065 -0.126207,0.61509 0.398682,1.20399 1.026711,1.29963 0.883846,0.13462 1.689954,-0.60133 1.796625,-1.48662 0.13845,-1.14903 -0.811281,-2.17132 -1.954311,-2.28485 -1.412392,-0.14019 -2.650238,1.02472 -2.768161,2.42594 -0.140935,1.67469 1.239739,3.12821 2.899483,3.24907 0.507066,0.0369 1.024721,-0.0456 1.498814,-0.2358 -0.557548,0.46597 -1.153196,0.58482 -1.567881,0.62123 -0.360488,0.004 -1.290031,-0.006 -1.992555,-0.39254 -0.725123,-0.39855 -1.967975,-1.81354 -1.840657,-3.32642 0.163209,-1.93926 1.866381,-3.54179 3.870549,-3.34278 z"
       id="path314236"
       sodipodi:nodetypes="cssssssscccsccccssssscccsscc"
       inkscape:export-filename="C:\Users\aniki\dev\PocketWarriorMonsters\Assets\Resources\Sprites\Battle\UI\MoveButtons.png"
       inkscape:export-xdpi="96"
       inkscape:export-ydpi="96" />
    <g
       id="g314242"
       transform="matrix(0.80868659,0,0,0.76912606,-121.47703,89.063439)"
       inkscape:export-filename="C:\Users\aniki\dev\PocketWarriorMonsters\Assets\Resources\Sprites\Battle\UI\MoveButtons.png"
       inkscape:export-xdpi="96"
       inkscape:export-ydpi="96">
      <path
         id="path314238"
         style="fill:#ffffff;stroke-width:1.065;stroke-linecap:square;stroke-linejoin:round"
         d="m 121.23345,85.172117 h 3.41436 l 2.1983,5.986836 h -7.85772 z"
         sodipodi:nodetypes="ccccc" />
      <path
         id="path314240"
         style="fill:#ffffff;stroke-width:1.25181;stroke-linecap:square;stroke-linejoin:round"
         d="m 116.32359,91.158953 h 1.77734 l 1.89782,-4.911078 h -1.77734 z" />
    </g>
    <path
       id="path314244"
       style="fill:#ffffff;stroke-width:0.677963;stroke-linecap:square;stroke-linejoin:round"
       d="m -23.237211,165.42635 -1.860942,2.7814 c -0.525494,0.78541 -0.623398,1.42859 -0.623398,1.89254 0,1.41856 1.149976,2.56854 2.568555,2.56854 1.418579,0 2.568555,-1.14998 2.568555,-2.56854 0,-0.45406 -0.19647,-1.27719 -0.641476,-1.89254 z m -1.137567,3.47584 a 1.7441429,1.8009037 0 0 0 -0.06934,0.50004 1.7441429,1.8009037 0 0 0 1.744503,1.80108 1.7441429,1.8009037 0 0 0 1.189859,-0.48457 1.7275322,1.7837521 0 0 1 -1.638567,1.2221 1.7275322,1.7837521 0 0 1 -1.727726,-1.78367 1.7275322,1.7837521 0 0 1 0.501337,-1.25498 z"
       inkscape:export-filename="C:\Users\aniki\dev\PocketWarriorMonsters\Assets\Resources\Sprites\Battle\UI\MoveButtons.png"
       inkscape:export-xdpi="96"
       inkscape:export-ydpi="96" />
    <path
       id="path314246"
       style="fill:#ffffff;stroke:none;stroke-width:0.852755;stroke-linecap:square;stroke-linejoin:round;stroke-miterlimit:4;stroke-dasharray:none;paint-order:normal"
       d="m -23.153189,177.92578 a 3.2956773,3.2956773 0 0 0 -3.295343,3.29534 3.2956773,3.2956773 0 0 0 3.295343,3.29573 3.2956773,3.2956773 0 0 0 3.295742,-3.29573 3.2956773,3.2956773 0 0 0 -3.295742,-3.29534 z m 0,0.59916 a 2.6964631,2.6964631 0 0 1 2.696573,2.69618 2.6964631,2.6964631 0 0 1 -2.696573,2.69658 2.6964631,2.6964631 0 0 1 -0.755154,-0.10931 2.5092086,2.6964631 0 0 0 1.806142,-2.58733 2.5092086,2.6964631 0 0 0 -1.804489,-2.58779 2.6964631,2.6964631 0 0 1 0.753501,-0.10829 z"
       inkscape:export-filename="C:\Users\aniki\dev\PocketWarriorMonsters\Assets\Resources\Sprites\Battle\UI\MoveButtons.png"
       inkscape:export-xdpi="96"
       inkscape:export-ydpi="96" />
    <g
       id="g314260"
       transform="matrix(0.64448164,-0.12905512,0.12905512,0.64448164,-91.813686,148.66216)"
       inkscape:export-filename="C:\Users\aniki\dev\PocketWarriorMonsters\Assets\Resources\Sprites\Battle\UI\MoveButtons.png"
       inkscape:export-xdpi="96"
       inkscape:export-ydpi="96">
      <g
         id="g314258"
         transform="translate(-36.201658,-5.0981662)">
        <path
           id="path314248"
           style="fill:#ffffff;stroke:none;stroke-width:0.576084;stroke-linecap:square;stroke-linejoin:round;stroke-miterlimit:4;stroke-dasharray:none;paint-order:normal"
           d="m 125.96979,95.676044 c -0.092,0.02005 -0.18296,0.03769 -0.27261,0.0528 -0.177,0.513637 -0.62394,0.900551 -0.83247,1.357264 0.0689,-0.01131 0.37267,0.01027 0.44356,-0.0053 1.71679,-0.382421 2.81531,-0.959755 4.14051,-2.588134 -0.9515,0.370549 -2.65549,0.623538 -3.32089,0.77989 -0.51571,0.121175 0.0842,0.346523 -0.1581,0.403455 z"
           sodipodi:nodetypes="cccccscc" />
        <path
           id="path314250"
           style="fill:#ffffff;stroke:none;stroke-width:0.721249;stroke-linecap:square;stroke-linejoin:round;stroke-miterlimit:4;stroke-dasharray:none;paint-order:normal"
           d="m 123.09853,89.475535 c -2.27133,0.504773 -3.22113,2.174122 -2.93947,4.483763 0.18364,1.505212 1.33884,2.602464 2.51509,3.040795 0.69178,0.257794 1.57473,0.25158 2.43619,0.161779 1.39024,-0.309688 2.40907,-1.03957 2.86538,-2.148391 -0.0791,0.03134 -0.15752,0.06396 -0.23765,0.09305 -0.1088,0.03955 -0.22445,0.05836 -0.3372,0.08342 -0.14222,0.03161 -0.28447,0.06917 -0.42778,0.09508 -0.0977,0.01767 -0.1976,0.02701 -0.29595,0.04037 -0.11935,0.01628 -0.23787,0.02227 -0.35783,0.02871 -0.12625,0.0068 -0.23442,0.02072 -0.35872,-0.01344 -0.0405,-0.01112 -0.15834,-0.03443 -0.17847,-0.07891 -0.0395,-0.08936 -9.1e-4,-0.210946 0.0179,-0.300433 0.006,-0.02815 -7.3e-4,-0.05817 0.006,-0.0861 0.008,-0.03173 0.0542,-0.08949 0.0771,-0.110311 0.10092,-0.09174 0.25989,-0.152575 0.37845,-0.202693 0.17987,-0.07606 0.36275,-0.144824 0.54526,-0.214358 0.38371,-0.146193 0.77398,-0.275215 1.15295,-0.433595 -0.002,1.18e-4 -0.003,1.46e-4 -0.004,3.93e-4 l 0.0773,-0.03094 c 0.005,-0.0023 0.0107,-0.0044 0.016,-0.0067 l -0.0142,0.0053 c 0.004,-0.0029 0.009,-0.0047 0.0142,-0.0053 0.0125,-0.0014 0.0134,0.02106 0.0233,0.0287 0.01,0.0077 0.0236,0.0086 0.0359,0.009 0.0247,6.3e-4 0.0526,0.0094 0.078,0.0081 0.008,-5.11e-4 0.0158,-0.0062 0.0242,-0.0054 0.007,7.23e-4 0.0138,0.0028 0.0208,0.0054 0.0186,-0.231063 0.0181,-0.472193 -0.002,-0.722609 -0.3859,0.139479 -0.79066,0.262945 -1.20867,0.368689 0.41211,-0.219138 0.80113,-0.475622 1.15698,-0.763231 -0.01,-0.05898 -0.0213,-0.117656 -0.0334,-0.176278 -0.0921,-0.414292 -0.24616,-0.812313 -0.45719,-1.18053 -0.58363,0.215234 -1.19388,0.37487 -1.8115,0.474086 0.56645,-0.197001 1.10732,-0.466407 1.60466,-0.799733 -1.35236,-1.371369 0.26799,-2.209459 -4.38151,-1.647636 z m 4.93472,4.408182 c -0.024,0.01032 -0.0481,0.02026 -0.0721,0.03032 0.0119,-6.53e-4 0.0338,0.0011 0.037,-2.81e-4 0.0136,-0.0063 0.0232,-0.02124 0.0352,-0.03004 z"
           sodipodi:nodetypes="ccscccsscsscccsssccccccscccccccccccccccccc" />
        <path
           id="path314252"
           style="fill:#ffffff;stroke:none;stroke-width:1.24051;stroke-linecap:square;stroke-linejoin:round;stroke-miterlimit:4;stroke-dasharray:none;paint-order:normal"
           d="m 124.41001,89.369331 c 0.0238,0.311768 -0.0752,0.616119 -0.33381,0.960892 -0.30004,0.400093 -0.65576,0.417158 -0.97892,0.256747 0.0431,0.492846 0.0488,1.002913 0.015,1.520212 0.18295,0.0076 0.3669,0.0077 0.55177,7.11e-4 3.45476,-0.151937 6.31588,-2.26904 7.42701,-3.813741 -3.00276,0.986818 -4.16515,0.864049 -6.68101,1.075179 z" />
        <path
           id="path314254"
           style="fill:#ffffff;stroke:none;stroke-width:1.06942;stroke-linecap:square;stroke-linejoin:round;stroke-miterlimit:4;stroke-dasharray:none;paint-order:normal"
           d="m 130.77823,90.224085 c -1.71719,0.861387 -4.3929,1.617787 -6.6589,1.607377 -0.12434,-7.72e-4 -0.24799,-0.004 -0.37082,-0.0096 -3e-5,0.04133 -8.5e-4,0.0828 -0.002,0.124209 -0.0164,0.839363 -0.10673,1.671578 -0.26671,2.458095 3.10295,-0.601405 6.03653,-1.691773 7.29801,-4.180076 z"
           sodipodi:nodetypes="cccccc" />
        <path
           id="path314256"
           style="fill:#ffffff;stroke:none;stroke-width:0.970828;stroke-linecap:square;stroke-linejoin:round;stroke-miterlimit:4;stroke-dasharray:none;paint-order:normal"
           d="m 130.24507,92.188082 c 0,0 -3.75225,2.10875 -6.22952,2.206479 -0.17949,0.0064 -0.35804,0.0096 -0.5353,0.0096 -0.0796,0.694667 -0.20955,1.353973 -0.38626,1.959222 0.1364,4.79e-4 0.2738,-0.0018 0.41197,-0.0069 2.7732,-0.952439 6.04903,-2.126683 6.73911,-4.168377 z"
           sodipodi:nodetypes="cccccc" />
      </g>
    </g>
    <path
       id="path314264"
       style="fill:#ffffff;stroke:none;stroke-width:0.243183;stroke-linecap:square;stroke-linejoin:round;stroke-miterlimit:4;stroke-dasharray:none;paint-order:normal"
       d="m -25.015092,202.32575 -1.87732,3.23416 1.86195,3.24283 3.73955,0.0102 1.87735,-3.23416 -1.86194,-3.24316 z m 1.86195,1.31355 a 1.9292788,1.9292788 0 0 1 1.92927,1.92927 1.9292788,1.9292788 0 0 1 -1.92927,1.92927 1.9292788,1.9292788 0 0 1 -1.92928,-1.92927 1.9292788,1.9292788 0 0 1 1.92928,-1.92927 z"
       inkscape:transform-center-y="0.00048968303"
       inkscape:transform-center-x="3.0634146e-06"
       inkscape:export-filename="C:\Users\aniki\dev\PocketWarriorMonsters\Assets\Resources\Sprites\Battle\UI\MoveButtons.png"
       inkscape:export-xdpi="96"
       inkscape:export-ydpi="96" />
    <path
       id="path314266"
       style="fill:#ffffff;stroke:none;stroke-width:0.719951;stroke-linecap:square;stroke-linejoin:round;stroke-miterlimit:4;stroke-dasharray:none;paint-order:normal"
       inkscape:transform-center-x="1.0716666e-06"
       inkscape:transform-center-y="-1.4766666e-06"
       d="m -25.138612,214.30324 -0.16384,1.96607 1.94826,1.12487 v -2.24974 z m 3.97127,0 -1.78441,0.8412 v 2.24974 l 1.94825,-1.12487 z m -4.33632,2.31436 -1.62058,1.12487 1.62058,1.12486 1.9486,-1.12486 z m 4.70138,0 -1.9486,1.12487 1.9486,1.12486 1.62058,-1.12486 z m -2.55191,1.47316 -1.94826,1.12486 0.16384,1.96608 1.78442,-0.84121 z"
       inkscape:export-filename="C:\Users\aniki\dev\PocketWarriorMonsters\Assets\Resources\Sprites\Battle\UI\MoveButtons.png"
       inkscape:export-xdpi="96"
       inkscape:export-ydpi="96" />
    <path
       id="path314268"
       style="fill:#ffffff;stroke:none;stroke-width:0.71995;stroke-linecap:square;stroke-linejoin:round;stroke-miterlimit:4;stroke-dasharray:none;paint-order:normal"
       inkscape:transform-center-y="-4.9066666e-06"
       d="m -21.167332,214.30324 -1.78459,0.84114 -3e-5,2.24968 1.94832,-1.12487 z m 1.98564,3.43922 -1.62072,-1.12475 -1.94832,1.12487 1.94829,1.12481 z m -4.17246,-2.59819 -1.78446,-0.84102 -0.16387,1.96589 1.94847,1.12511 z m 2.35069,4.07152 -1.94847,-1.12511 1.4e-4,2.24998 1.78445,0.84102 z m -2.55175,-1.47344 -1.94829,-1.12481 -1.62075,1.12493 1.62072,1.12475 z"
       inkscape:export-filename="C:\Users\aniki\dev\PocketWarriorMonsters\Assets\Resources\Sprites\Battle\UI\MoveButtons.png"
       inkscape:export-xdpi="96"
       inkscape:export-ydpi="96" />
    <path
       id="path314272"
       style="fill:#ffffff;stroke-width:0.875312;stroke-linecap:square;stroke-linejoin:round"
       inkscape:transform-center-x="3.2500001e-06"
       inkscape:transform-center-y="-4.8333333e-06"
       d="m -21.545252,230.14965 -2.68944,2.44698 -1.84444,-0.1735 -0.82967,-2.43332 2.94557,-3.16609 2.997,0.006 z"
       sodipodi:nodetypes="ccccccc"
       inkscape:export-filename="C:\Users\aniki\dev\PocketWarriorMonsters\Assets\Resources\Sprites\Battle\UI\MoveButtons.png"
       inkscape:export-xdpi="96"
       inkscape:export-ydpi="96" />
    <path
       id="path314274"
       style="fill:#ffffff;stroke-width:0.875312;stroke-linecap:square;stroke-linejoin:round"
       d="m -23.643282,232.77248 2.38093,-2.0264 0.9633,0.80754 -1.4648,1.45504 z"
       sodipodi:nodetypes="ccccc"
       inkscape:export-filename="C:\Users\aniki\dev\PocketWarriorMonsters\Assets\Resources\Sprites\Battle\UI\MoveButtons.png"
       inkscape:export-xdpi="96"
       inkscape:export-ydpi="96" />
    <path
       id="path314276"
       style="fill:#ffffff;stroke-width:0.875312;stroke-linecap:square;stroke-linejoin:round"
       d="m -20.481142,227.1131 1.08399,2.12268 -0.57683,1.78101 -0.94608,-0.80266 z"
       sodipodi:nodetypes="ccccc"
       inkscape:export-filename="C:\Users\aniki\dev\PocketWarriorMonsters\Assets\Resources\Sprites\Battle\UI\MoveButtons.png"
       inkscape:export-xdpi="96"
       inkscape:export-ydpi="96" />
    <path
       id="path314280"
       style="fill:#ffffff;stroke-width:0.921483;stroke-linecap:square;stroke-linejoin:round"
       d="m -20.359202,239.27897 c 0,0 -3.41021,-0.77037 -4.91008,0.82963 -0.93089,0.99305 -1.11055,2.43052 -0.44484,3.54896 l 0.58334,-0.44422 0.2033,-2.45313 0.53621,1.89005 1.24412,-0.94756 0.14075,-1.69558 0.37087,1.30606 1.41961,-1.08128 -1.0598,1.38607 1.22894,0.34871 -1.59728,0.13224 -0.9735,1.27317 1.81736,0.51535 -2.36115,0.19604 -0.47772,0.62443 c 1.11073,0.62655 2.55811,0.48045 3.49047,-0.47867 1.49538,-1.5383 0.78948,-4.95022 0.78948,-4.95022 z"
       sodipodi:nodetypes="cscccccccccccccccsc"
       inkscape:export-filename="C:\Users\aniki\dev\PocketWarriorMonsters\Assets\Resources\Sprites\Battle\UI\MoveButtons.png"
       inkscape:export-xdpi="96"
       inkscape:export-ydpi="96" />
    <path
       id="path314282"
       style="fill:#ffffff;stroke:none;stroke-width:0.741984;stroke-linecap:square;stroke-linejoin:round;stroke-miterlimit:4;stroke-dasharray:none;paint-order:normal"
       inkscape:transform-center-y="2.3287796e-05"
       d="m -23.153202,250.2444 -1.25536,1.56133 -1.34888,-0.14649 0.14651,1.3493 -1.56134,1.25538 1.56134,1.25534 -0.14651,1.34888 1.34888,-0.14651 1.25536,1.56134 1.25536,-1.56134 1.34931,0.14651 -0.1465,-1.34888 1.56134,-1.25534 -1.56134,-1.25538 0.1465,-1.3493 -1.34931,0.14649 z m 4.2e-4,2.14397 0.618,1.25708 1.25709,0.618 -1.25709,0.6184 -0.618,1.25709 -0.61838,-1.25709 -1.25712,-0.6184 1.25712,-0.618 z"
       inkscape:transform-center-x="-3.7351078e-06"
       inkscape:export-filename="C:\Users\aniki\dev\PocketWarriorMonsters\Assets\Resources\Sprites\Battle\UI\MoveButtons.png"
       inkscape:export-xdpi="96"
       inkscape:export-ydpi="96" />
  </g>
</svg>
